# xmcd CD database file
#
# Track frame offsets:
#	150
#	69570
#	98360
#	116637
#	135590
#	156027
#	183927
#
# Disc length: 2646 seconds
#
# Revision: 0
# Processed by: cddbd v1.5.2PL0 Copyright (c) Steve Scherf et al.
# Submitted via: CDex 1.51
#
DISCID=510a5407
DTITLE=George 'Firehouse' Probert, Wild Bill Davison and The Benko Dixieland Band - Dixie ... Dixieland
DYEAR=1900
DGENRE=Jazz
TTITLE0=Tin Roof Blues
TTITLE1=Coney Island Washboard
TTITLE2=Jada
TTITLE3=Red Lady
TTITLE4=I Can't Give You Anything But Love My Baby
TTITLE5=St. james Infirmary Blues
TTITLE6=Edison And The Chewing Gum
EXTD=
EXTT0=
EXTT1=
EXTT2=
EXTT3=
EXTT4=
EXTT5=
EXTT6=
PLAYORDER=
